<svg width="512pt" height="512pt" viewBox="0 0 512 512" xmlns="http://www.w3.org/2000/svg"><path fill="#3fbeeb" d="M11.32 154.21C92.95 113.47 174.58 72.74 256.2 32c84.4 42.17 168.79 84.38 253.18 126.55.66.18 1.97.56 2.62.74v.53c-31.98 16.1-63.99 32.14-96.01 48.18-12.09 5.81-23.9 12.16-35.94 18.08-17.29 8.19-34.04 17.46-51.38 25.53-21.96 11.52-44.44 21.99-66.27 33.75-2.59 1.25-5.56 3.38-8.43 1.61-52.66-26.22-105.22-52.67-157.86-78.95C64.12 191.85 31.95 176.01 0 159.76v-.34c3.99-1.23 7.59-3.4 11.32-5.21z"/><path fill="#29a4cf" d="M96.11 208.02c52.64 26.28 105.2 52.73 157.86 78.95 2.87 1.77 5.84-.36 8.43-1.61 21.83-11.76 44.31-22.23 66.27-33.75 17.34-8.07 34.09-17.34 51.38-25.53 12.04-5.92 23.85-12.27 35.94-18.08 27.53 13.76 55.05 27.52 82.57 41.28 4.26 2.01 8.3 4.52 12.76 6.05l.68.01v1.14c-4.51 1.44-8.6 3.87-12.83 5.94-27.72 13.83-55.42 27.72-83.15 41.54-13.51 6.89-27.08 13.66-40.74 20.24-20.25 10.65-40.99 20.31-61.28 30.88-18.33 8.82-36.35 18.27-54.63 27.2-4.39 2.82-8.78-1.32-12.7-3.04-50.16-25.15-100.42-50.11-150.57-75.27-30.52-15.3-61.11-30.46-91.63-45.77-1.23-.6-2.49-1.14-3.8-1.54l-.67.01v-1.16c3.79-1.2 7.28-3.13 10.81-4.91 28.44-14.18 56.87-28.38 85.3-42.58z"/><path fill="#208cb6" d="M96.1 303.97c50.15 25.16 100.41 50.12 150.57 75.27 3.92 1.72 8.31 5.86 12.7 3.04 18.28-8.93 36.3-18.38 54.63-27.2 20.29-10.57 41.03-20.23 61.28-30.88 13.66-6.58 27.23-13.35 40.74-20.24 28.21 14.16 56.43 28.3 84.64 42.47 3.53 1.71 6.9 3.81 10.68 4.93l.66-.02v1.18c-11.38 4.8-22.17 10.89-33.3 16.24L256.22 480C170.81 437.36 85.4 394.76.01 352.09l-.01.87v-.93c32.09-15.9 64.06-32.04 96.1-48.06z"/></svg>