<svg version="1" xmlns="http://www.w3.org/2000/svg" width="512pt" height="512pt" viewBox="0 0 512.000000 512.000000"><path d="M127.8 96L.1 159.9l47.4 23.8C73.6 196.8 95 207.7 95 208c0 .3-21.3 11.1-47.4 24C21.5 244.9.2 255.7.2 256c0 .3 21.3 11.1 47.4 24C73.7 292.9 95 303.7 95 304c0 .3-21.1 11.1-47 24-25.8 12.9-47 23.7-47 24 0 .3 57.4 29.2 127.5 64.2L256 480l127.9-63.8c70.4-35 128-64 128-64.5.1-.4-.4-.7-1-.7-1.3 0-93.9-46.3-93.9-47 0-.3 21.3-11.1 47.4-24 26.1-12.9 47.4-23.7 47.4-24 0-.3-21.3-11.1-47.4-24-26.1-12.9-47.4-23.7-47.4-24 0-.3 21.4-11.2 47.5-24.3l47.4-23.8L384 96c-70.4-35.2-128.1-64-128.2-63.9-.2 0-57.8 28.8-128 63.9z"/></svg>